<?xml version="1.0" encoding="utf-8"?>
<!-- Generator: Adobe Illustrator 20.0.0, SVG Export Plug-In . SVG Version: 6.00 Build 0)  -->
<svg version="1.1" id="Calque_1" xmlns:svg="http://www.w3.org/2000/svg"
	 xmlns="http://www.w3.org/2000/svg" xmlns:xlink="http://www.w3.org/1999/xlink" x="0px" y="0px" viewBox="0 0 700 800"
	 style="enable-background:new 0 0 700 800;" xml:space="preserve">
<style type="text/css">
	.st0{fill:url(#rect1873_1_);}
	.st1{opacity:0.33;enable-background:new    ;}
	.st2{fill:none;stroke:#000000;stroke-width:4;}
	.st3{fill:none;stroke:#000000;stroke-width:2;}
	.st4{fill:none;stroke:#FFFFFF;stroke-width:2;}
	.st5{opacity:0.17;}
</style>
<linearGradient id="rect1873_1_" gradientUnits="userSpaceOnUse" x1="136.7665" y1="172.1583" x2="712.7548" y2="171.3667" gradientTransform="matrix(1 0 0 1 0 203.72)">
	<stop  offset="5.560000e-02" style="stop-color:#90B4FF"/>
	<stop  offset="0.1667" style="stop-color:#ACC6FF"/>
	<stop  offset="0.2778" style="stop-color:#D7E1FF"/>
	<stop  offset="0.3889" style="stop-color:#F7F4FD"/>
	<stop  offset="0.5" style="stop-color:#FFECE0"/>
	<stop  offset="0.6111" style="stop-color:#FFD6AD"/>
	<stop  offset="0.7222" style="stop-color:#FFAA54"/>
	<stop  offset="0.8333" style="stop-color:#FF7200"/>
	<stop  offset="0.9444" style="stop-color:#FF3101"/>
</linearGradient>
<rect id="rect1873" x="124" y="22" class="st0" width="576" height="707"/>
<g class="st1">
	<path d="M489.7,372.3c0,2.3,0.1,2.4,1.3,2.6l0.7,0.1c0.2,0.1,0.2,0.7,0,0.8c-1.3,0-2.5-0.1-3.6-0.1c-1.2,0-2.4,0-3.7,0.1
		c-0.2-0.1-0.2-0.7,0-0.8l0.7-0.1c1.1-0.2,1.3-0.4,1.3-2.6v-8.8c0-2.3-0.1-2.4-1.3-2.6l-0.7-0.1c-0.2-0.1-0.2-0.7,0-0.8
		c1.3,0,2.5,0.1,3.7,0.1c1.1,0,2.3,0,3.6-0.1c0.2,0.1,0.2,0.7,0,0.8l-0.7,0.1c-1.1,0.2-1.3,0.4-1.3,2.6V372.3z"/>
	<path d="M503.3,369.9c-1.2,2.9-1.9,4.8-2.4,6.1c-0.2,0.1-0.5,0.2-0.8,0.2c-0.3,0-0.5-0.1-0.7-0.2c-0.3-0.6-0.7-1.9-1-2.7l-3.9-9.8
		c-1-2.4-0.9-2.3-2.1-2.6l-0.7-0.2c-0.2-0.3-0.1-0.7,0.1-0.8c1.2,0,2,0.1,3.3,0.1c1.1,0,2.1,0,3.6-0.1c0.2,0.1,0.2,0.6,0,0.8
		l-0.7,0.1c-0.4,0.1-0.6,0.2-0.6,0.5c0,0.2,0.4,1.2,1,2.6l2.1,5.4c0.3,0.9,0.6,1.4,0.7,1.8c0.2-0.4,0.5-1.1,0.8-1.8l0.9-2.3
		c0.6-1.5,1.6-4.2,1.9-5c0.2-0.5,0.2-0.7,0.2-0.9c0-0.2-0.1-0.3-0.7-0.4l-0.7-0.2c-0.2-0.2-0.2-0.7,0.1-0.8c1.1,0,2,0.1,3,0.1
		c0.8,0,1.5,0,2.2-0.1c0.2,0.1,0.2,0.7,0,0.8l-0.6,0.1c-0.7,0.1-1,0.3-1.3,0.8c-0.5,0.8-1.2,2.1-2,4L503.3,369.9z"/>
</g>
<g class="st1">
	<path d="M565.7,302.6c0,2.3,0.1,2.4,1.3,2.6l0.7,0.1c0.2,0.1,0.2,0.7,0,0.8c-1.3,0-2.5-0.1-3.6-0.1c-1.2,0-2.4,0-3.7,0.1
		c-0.2-0.1-0.2-0.7,0-0.8l0.7-0.1c1.1-0.2,1.3-0.4,1.3-2.6v-8.8c0-2.3-0.1-2.4-1.3-2.6l-0.7-0.1c-0.2-0.1-0.2-0.7,0-0.8
		c1.3,0,2.5,0.1,3.7,0.1c1.1,0,2.3,0,3.6-0.1c0.2,0.1,0.2,0.7,0,0.8l-0.7,0.1c-1.1,0.2-1.3,0.4-1.3,2.6V302.6z"/>
	<path d="M574.7,302.6c0,2.3,0.1,2.4,1.3,2.6l0.7,0.1c0.2,0.1,0.2,0.7,0,0.8c-1.3,0-2.5-0.1-3.6-0.1c-1.2,0-2.4,0-3.7,0.1
		c-0.2-0.1-0.2-0.7,0-0.8l0.7-0.1c1.1-0.2,1.3-0.4,1.3-2.6v-8.8c0-2.3-0.1-2.4-1.3-2.6l-0.7-0.1c-0.2-0.1-0.2-0.7,0-0.8
		c1.3,0,2.5,0.1,3.7,0.1c1.1,0,2.3,0,3.6-0.1c0.2,0.1,0.2,0.7,0,0.8l-0.7,0.1c-1.1,0.2-1.3,0.4-1.3,2.6V302.6z"/>
	<path d="M583.6,302.6c0,2.3,0.1,2.4,1.3,2.6l0.7,0.1c0.2,0.1,0.2,0.7,0,0.8c-1.3,0-2.5-0.1-3.6-0.1c-1.2,0-2.4,0-3.7,0.1
		c-0.2-0.1-0.2-0.7,0-0.8l0.7-0.1c1.1-0.2,1.3-0.4,1.3-2.6v-8.8c0-2.3-0.1-2.4-1.3-2.6l-0.7-0.1c-0.2-0.1-0.2-0.7,0-0.8
		c1.3,0,2.5,0.1,3.7,0.1c1.1,0,2.3,0,3.6-0.1c0.2,0.1,0.2,0.7,0,0.8l-0.7,0.1c-1.1,0.2-1.3,0.4-1.3,2.6V302.6z"/>
</g>
<g class="st1">
	<path d="M569.7,262.5c0,2.3,0.1,2.4,1.3,2.6l0.7,0.1c0.2,0.1,0.2,0.7,0,0.8c-1.3,0-2.5-0.1-3.6-0.1c-1.2,0-2.4,0-3.7,0.1
		c-0.2-0.1-0.2-0.7,0-0.8l0.7-0.1c1.1-0.2,1.3-0.4,1.3-2.6v-8.8c0-2.3-0.1-2.4-1.3-2.6l-0.7-0.1c-0.2-0.1-0.2-0.7,0-0.8
		c1.3,0,2.5,0.1,3.7,0.1c1.1,0,2.3,0,3.6-0.1c0.2,0.1,0.2,0.7,0,0.8L571,251c-1.1,0.2-1.3,0.4-1.3,2.6V262.5z"/>
	<path d="M578.7,262.5c0,2.3,0.1,2.4,1.3,2.6l0.7,0.1c0.2,0.1,0.2,0.7,0,0.8c-1.3,0-2.5-0.1-3.6-0.1c-1.2,0-2.4,0-3.7,0.1
		c-0.2-0.1-0.2-0.7,0-0.8l0.7-0.1c1.1-0.2,1.3-0.4,1.3-2.6v-8.8c0-2.3-0.1-2.4-1.3-2.6l-0.7-0.1c-0.2-0.1-0.2-0.7,0-0.8
		c1.3,0,2.5,0.1,3.7,0.1c1.1,0,2.3,0,3.6-0.1c0.2,0.1,0.2,0.7,0,0.8l-0.7,0.1c-1.1,0.2-1.3,0.4-1.3,2.6V262.5z"/>
</g>
<g class="st1">
	<path d="M568.7,216.4c0,2.3,0.1,2.4,1.3,2.6l0.7,0.1c0.2,0.1,0.2,0.7,0,0.8c-1.3,0-2.5-0.1-3.6-0.1c-1.2,0-2.4,0-3.7,0.1
		c-0.2-0.1-0.2-0.7,0-0.8l0.7-0.1c1.1-0.2,1.3-0.4,1.3-2.6v-8.8c0-2.3-0.1-2.4-1.3-2.6l-0.7-0.1c-0.2-0.1-0.2-0.7,0-0.8
		c1.3,0,2.5,0.1,3.7,0.1c1.1,0,2.3,0,3.6-0.1c0.2,0.1,0.2,0.7,0,0.8l-0.7,0.1c-1.1,0.2-1.3,0.4-1.3,2.6V216.4z"/>
	<path d="M576.1,210c0,0.4,0.1,0.6,0.3,0.6c0.6-0.3,1.5-0.7,2.6-0.7c2.7,0,4.5,2.1,4.5,4.8c0,3.5-2.5,5.5-5.9,5.5
		c-1.1,0-2.1-0.2-2.6-0.4c-0.4-0.1-0.6-0.2-0.7-0.2c-0.2,0-0.7,0.2-0.8,0.4c-0.2,0-0.4,0-0.5-0.2c0-0.3,0.1-1.1,0.1-2.4v-10.8
		c0-1,0-1.2-0.5-1.5l-0.4-0.2c-0.2-0.1-0.2-0.6,0-0.7c1-0.2,2.5-0.8,3.7-1.3c0.1,0,0.3,0,0.4,0.2c-0.1,1-0.1,2-0.1,3.5V210z
		 M576.1,216.5c0,0.6,0.1,1.3,0.5,1.8c0.3,0.5,0.8,0.8,1.4,0.8c1.6,0,2.1-1.7,2.1-3.6c0-2.4-1.2-4-2.8-4c-0.4,0-0.8,0.1-1,0.3
		c-0.2,0.1-0.2,0.5-0.2,1.1V216.5z"/>
</g>
<g class="st1">
	<path d="M568.7,188.8c0,2.3,0.1,2.4,1.3,2.6l0.7,0.1c0.2,0.1,0.2,0.7,0,0.8c-1.3,0-2.5-0.1-3.6-0.1c-1.2,0-2.4,0-3.7,0.1
		c-0.2-0.1-0.2-0.7,0-0.8l0.7-0.1c1.1-0.2,1.3-0.4,1.3-2.6V180c0-2.3-0.1-2.4-1.3-2.6l-0.7-0.1c-0.2-0.1-0.2-0.7,0-0.8
		c1.3,0,2.5,0.1,3.7,0.1c1.1,0,2.3,0,3.6-0.1c0.2,0.1,0.2,0.7,0,0.8l-0.7,0.1c-1.1,0.2-1.3,0.4-1.3,2.6V188.8z"/>
	<path d="M580.1,189.1c-0.1,1.6,0.6,2.1,1.1,2.1c0.3,0,0.5-0.1,0.9-0.3c0.2,0,0.4,0.3,0.3,0.6c-0.3,0.4-1.4,1.3-2.8,1.3
		c-0.8,0-1.4-0.3-2-0.8c-0.2-0.1-0.3-0.2-0.4-0.2s-0.3,0.1-0.5,0.3c-0.4,0.3-1.2,0.8-2,0.8c-1.4,0-2.7-0.8-2.7-2.5
		c0-1.2,0.7-2,2.5-2.5c0.9-0.3,1.6-0.5,2.3-0.7c0.4-0.1,0.6-0.3,0.6-0.5c0-0.3,0-0.5,0-0.8c0-0.9-0.4-2.1-1.4-2.1
		c-0.6,0-1.1,0.3-1.3,1.4c0,0.4-0.2,0.6-0.4,0.8c-0.4,0.3-1.3,0.6-1.7,0.6c-0.4,0-0.6-0.3-0.6-0.6c0-0.6,0.6-1.4,1.2-1.8
		c0.8-0.6,2.3-1.5,4-1.5c2,0,3.2,1,3.1,3.5L580.1,189.1z M577.2,188.4c0-0.4,0-0.5-0.2-0.4c-1.1,0.1-2,0.6-2,1.7
		c0,0.8,0.6,1.4,1.2,1.4c0.7,0,0.9-0.4,0.9-1.2L577.2,188.4z"/>
</g>
<g class="st1">
	<path d="M542,107.3c0,3.9-1.7,7.8-5.6,7.8s-5.6-4-5.6-7.8c0-3.7,1.7-7.8,5.6-7.8S542,103.6,542,107.3z M536.4,114.1
		c1.8,0,2-4.6,2-6.7s-0.2-6.7-2-6.7s-2,4.6-2,6.7S534.6,114.1,536.4,114.1z"/>
</g>
<g class="st1">
	<path d="M537.6,458c-1.2,2.9-1.9,4.8-2.4,6.1c-0.2,0.1-0.5,0.2-0.8,0.2c-0.3,0-0.5-0.1-0.7-0.2c-0.3-0.6-0.7-1.9-1-2.7l-3.9-9.8
		c-1-2.4-0.9-2.3-2.1-2.6l-0.7-0.2c-0.2-0.3-0.1-0.7,0.1-0.8c1.2,0,2,0.1,3.3,0.1c1.1,0,2.1,0,3.6-0.1c0.2,0.1,0.2,0.6,0,0.8
		l-0.7,0.1c-0.4,0.1-0.6,0.2-0.6,0.5c0,0.2,0.4,1.2,1,2.6l2.1,5.4c0.3,0.9,0.6,1.4,0.7,1.8c0.2-0.4,0.5-1.1,0.8-1.8l0.9-2.3
		c0.6-1.5,1.6-4.2,1.9-5c0.2-0.5,0.2-0.7,0.2-0.9c0-0.2-0.1-0.3-0.7-0.4l-0.7-0.2c-0.2-0.2-0.2-0.7,0.1-0.8c1.1,0,2,0.1,3,0.1
		c0.8,0,1.5,0,2.2-0.1c0.2,0.1,0.2,0.7,0,0.8l-0.6,0.1c-0.7,0.1-1,0.3-1.3,0.8c-0.5,0.8-1.2,2.1-2,4L537.6,458z"/>
</g>
<g class="st1">
	<path d="M483.1,517.2c-1.2,2.9-1.9,4.8-2.4,6.1c-0.2,0.1-0.5,0.2-0.8,0.2c-0.3,0-0.5-0.1-0.7-0.2c-0.3-0.6-0.7-1.9-1-2.7l-3.9-9.8
		c-1-2.4-0.9-2.3-2.1-2.6l-0.7-0.2c-0.2-0.3-0.1-0.7,0.1-0.8c1.2,0,2,0.1,3.3,0.1c1.1,0,2.1,0,3.6-0.1c0.2,0.1,0.2,0.6,0,0.8
		l-0.7,0.1c-0.4,0.1-0.6,0.2-0.6,0.5c0,0.2,0.4,1.2,1,2.6l2.1,5.4c0.3,0.9,0.6,1.4,0.7,1.8c0.2-0.4,0.5-1.1,0.8-1.8l0.9-2.3
		c0.6-1.5,1.6-4.2,1.9-5c0.2-0.5,0.2-0.7,0.2-0.9c0-0.2-0.1-0.3-0.7-0.4l-0.7-0.2c-0.2-0.2-0.2-0.7,0.1-0.8c1.1,0,2,0.1,3,0.1
		c0.8,0,1.5,0,2.2-0.1c0.2,0.1,0.2,0.7,0,0.8l-0.6,0.1c-0.7,0.1-1,0.3-1.3,0.8c-0.5,0.8-1.2,2.1-2,4L483.1,517.2z"/>
	<path d="M493.8,519.6c0,2.3,0.1,2.4,1.3,2.6l0.7,0.1c0.2,0.1,0.2,0.7,0,0.8c-1.3,0-2.5-0.1-3.6-0.1c-1.2,0-2.4,0-3.7,0.1
		c-0.2-0.1-0.2-0.7,0-0.8l0.7-0.1c1.1-0.2,1.3-0.4,1.3-2.6v-8.8c0-2.3-0.1-2.4-1.3-2.6l-0.7-0.1c-0.2-0.1-0.2-0.7,0-0.8
		c1.3,0,2.5,0.1,3.7,0.1c1.1,0,2.3,0,3.6-0.1c0.2,0.1,0.2,0.7,0,0.8l-0.7,0.1c-1.1,0.2-1.3,0.4-1.3,2.6V519.6z"/>
</g>
<g class="st1">
	<path d="M450.2,655.9c-1.2,2.9-1.9,4.8-2.4,6.1c-0.2,0.1-0.5,0.2-0.8,0.2c-0.3,0-0.5-0.1-0.7-0.2c-0.3-0.6-0.7-1.9-1-2.7l-3.9-9.8
		c-1-2.4-0.9-2.3-2.1-2.6l-0.7-0.2c-0.2-0.3-0.1-0.7,0.1-0.8c1.2,0,2,0.1,3.3,0.1c1.1,0,2.1,0,3.6-0.1c0.2,0.1,0.2,0.6,0,0.8
		l-0.7,0.1c-0.4,0.1-0.6,0.2-0.6,0.5c0,0.2,0.4,1.2,1,2.6l2.1,5.4c0.3,0.9,0.6,1.4,0.7,1.8c0.2-0.4,0.5-1.1,0.8-1.8l0.9-2.3
		c0.6-1.5,1.6-4.2,1.9-5c0.2-0.5,0.2-0.7,0.2-0.9c0-0.2-0.1-0.3-0.7-0.4l-0.7-0.2c-0.2-0.2-0.2-0.7,0.1-0.8c1.1,0,2,0.1,3,0.1
		c0.8,0,1.5,0,2.2-0.1c0.2,0.1,0.2,0.7,0,0.8l-0.6,0.1c-0.7,0.1-1,0.3-1.3,0.8c-0.5,0.8-1.2,2.1-2,4L450.2,655.9z"/>
	<path d="M460.9,658.4c0,2.3,0.1,2.4,1.3,2.6l0.7,0.1c0.2,0.1,0.2,0.7,0,0.8c-1.3,0-2.5-0.1-3.6-0.1c-1.2,0-2.4,0-3.7,0.1
		c-0.2-0.1-0.2-0.7,0-0.8l0.7-0.1c1.1-0.2,1.3-0.4,1.3-2.6v-8.8c0-2.3-0.1-2.4-1.3-2.6l-0.7-0.1c-0.2-0.1-0.2-0.7,0-0.8
		c1.3,0,2.5,0.1,3.7,0.1c1.1,0,2.3,0,3.6-0.1c0.2,0.1,0.2,0.7,0,0.8l-0.7,0.1c-1.1,0.2-1.3,0.4-1.3,2.6V658.4z"/>
	<path d="M469.8,658.4c0,2.3,0.1,2.4,1.3,2.6l0.7,0.1c0.2,0.1,0.2,0.7,0,0.8c-1.3,0-2.5-0.1-3.6-0.1c-1.2,0-2.4,0-3.7,0.1
		c-0.2-0.1-0.2-0.7,0-0.8l0.7-0.1c1.1-0.2,1.3-0.4,1.3-2.6v-8.8c0-2.3-0.1-2.4-1.3-2.6l-0.7-0.1c-0.2-0.1-0.2-0.7,0-0.8
		c1.3,0,2.5,0.1,3.7,0.1c1.1,0,2.3,0,3.6-0.1c0.2,0.1,0.2,0.7,0,0.8l-0.7,0.1c-1.1,0.2-1.3,0.4-1.3,2.6V658.4z"/>
</g>
<g>
	<g>
		<line class="st2" x1="58.3" y1="349" x2="58.3" y2="305.6"/>
		<g>
			<polygon points="65.1,313.5 58.3,306.8 51.6,313.5 51.6,307.8 58.3,301 65.1,307.8 			"/>
		</g>
	</g>
</g>
<line class="st3" x1="188" y1="745" x2="188" y2="729"/>
<line class="st3" x1="252" y1="745" x2="252" y2="729"/>
<line class="st3" x1="316" y1="745" x2="316" y2="729"/>
<line class="st3" x1="380" y1="745" x2="380" y2="729"/>
<line class="st3" x1="444" y1="745" x2="444" y2="729"/>
<line class="st3" x1="508" y1="745" x2="508" y2="729"/>
<line class="st3" x1="572" y1="745" x2="572" y2="729"/>
<line class="st3" x1="636" y1="745" x2="636" y2="729"/>
<g>
	<path d="M160.6,752.4c-1.2,1.2-2.6,1.9-4.6,1.9c-1.9,0-3.4-0.7-4.6-1.9c-1.7-1.7-1.7-3.9-1.7-6.8s0-5.1,1.7-6.8
		c1.2-1.2,2.7-1.9,4.6-1.9c1.9,0,3.4,0.7,4.6,1.9c1.7,1.7,1.7,3.9,1.7,6.8S162.3,750.6,160.6,752.4z M158.1,740.7
		c-0.5-0.6-1.2-0.9-2.1-0.9c-0.9,0-1.7,0.4-2.1,0.9c-0.6,0.7-0.8,1.5-0.8,4.8s0.2,4.1,0.8,4.8c0.5,0.6,1.2,0.9,2.1,0.9
		c0.9,0,1.6-0.4,2.1-0.9c0.6-0.7,0.8-1.5,0.8-4.8S158.8,741.5,158.1,740.7z"/>
</g>
<g>
	<path d="M221.2,754.1h-7.1V737h6.8c3.3,0,5.2,1.9,5.2,4.8c0,1.9-1.2,3.1-2.1,3.5c1,0.5,2.3,1.6,2.3,3.8
		C226.4,752.4,224.3,754.1,221.2,754.1z M220.7,740h-3.2v3.9h3.2c1.4,0,2.2-0.8,2.2-2C222.9,740.8,222.1,740,220.7,740z
		 M220.9,746.9h-3.5v4.2h3.5c1.5,0,2.2-1,2.2-2.1C223.1,747.8,222.4,746.9,220.9,746.9z"/>
</g>
<g>
	<path d="M288,754.1l-1-3h-6l-1,3h-3.5l6.2-17.1h2.6l6.2,17.1H288z M284.1,742l-2.1,6.2h4.2L284.1,742z"/>
</g>
<g>
	<path d="M346.3,740v4.2h6.7v3h-6.7v6.9H343V737h11.2v3H346.3z"/>
</g>
<g>
	<path d="M416.7,752.3c-1.4,1.4-3,1.9-4.8,1.9c-1.9,0-3.4-0.7-4.6-1.9c-1.7-1.7-1.7-3.9-1.7-6.8s0-5.1,1.7-6.8
		c1.2-1.2,2.7-1.9,4.6-1.9c3.9,0,5.9,2.6,6.4,5.5H415c-0.4-1.6-1.4-2.5-3-2.5c-0.9,0-1.6,0.4-2.1,0.9c-0.6,0.7-0.8,1.5-0.8,4.8
		s0.2,4.1,0.8,4.8c0.5,0.6,1.2,0.9,2.1,0.9c1,0,1.8-0.4,2.4-1c0.5-0.6,0.8-1.4,0.8-2.3v-0.6h-3.1v-2.8h6.4v2.5
		C418.3,749.6,417.9,751,416.7,752.3z"/>
</g>
<g>
	<path d="M479.9,754.1l-4.4-7.8l-2.2,2.6v5.1h-3.3V737h3.3v7.4l6-7.4h4l-5.6,6.8l6,10.3H479.9z"/>
</g>
<g>
	<path d="M544.4,754.1v-10l-3.2,6.5h-2.2l-3.3-6.5v10h-3.3V737h3.3l4.4,9.2l4.4-9.2h3.3v17.1H544.4z"/>
</g>
<g>
	<path d="M599.1,754.1V737h3.3v14.1h7.7v3H599.1z"/>
</g>
<g>
	<path d="M669.7,740v14.1h-3.3V740h-4.4v-3h12.2v3H669.7z"/>
</g>
<g>
	<line class="st4" x1="124" y1="628" x2="700" y2="628"/>
	<line class="st4" x1="124" y1="527" x2="700" y2="527"/>
	<line class="st4" x1="124" y1="426" x2="700" y2="426"/>
	<line class="st4" x1="124" y1="325" x2="700" y2="325"/>
	<line class="st4" x1="124" y1="224" x2="700" y2="224"/>
	<line class="st4" x1="124" y1="123" x2="700" y2="123"/>
</g>
<g>
	<path d="M86.5,631.8v3.8h-2.8v-3.8h-3.7v-2.9h3.7V625h2.8v3.8h3.6v2.9H86.5z"/>
	<path d="M96.9,636.9v-13.7l-3.3,3v-3.4l3.3-3h3v17.1H96.9z"/>
	<path d="M113.5,635.7c-0.7,0.8-1.9,1.4-3.6,1.4s-2.9-0.6-3.6-1.4c-1-1.1-1.2-2.3-1.3-3.6h3c0.2,1.3,0.8,2.1,2,2.1
		c0.6,0,1-0.2,1.4-0.6c0.5-0.6,0.6-1.5,0.6-2.5c0-2-0.5-3.1-2-3.1c-1.2,0-1.8,0.7-2,1.4h-2.7v-9.6h9.2v2.8H108v3.7
		c0.4-0.4,1.3-0.9,2.4-0.9c1.3,0,2.4,0.5,3,1.2c1.3,1.3,1.5,3,1.5,4.6C114.9,633.1,114.6,634.5,113.5,635.7z"/>
</g>
<g>
	<path d="M86.5,732.8v3.8h-2.8v-3.8h-3.7v-2.9h3.7V726h2.8v3.8h3.6v2.9H86.5z"/>
	<path d="M92.6,737.9v-2.8l6.1-7.4c0.6-0.7,0.8-1.3,0.8-2.1c0-1.3-0.7-2.1-2-2.1c-1,0-2,0.5-2,2.2h-3c0-3.1,2.2-5,4.9-5
		c2.9,0,4.9,1.9,4.9,5c0,1.7-0.6,2.5-1.7,3.9l-4.5,5.5h6.3v2.8H92.6z"/>
	<path d="M109.8,738.1c-2.6,0-4.9-1.8-4.9-5.1v-7.2c0-3.3,2.3-5.1,4.9-5.1c2.6,0,4.9,1.8,4.9,5.1v7.2
		C114.8,736.3,112.5,738.1,109.8,738.1z M111.8,725.9c0-1.4-0.8-2.3-2-2.3c-1.2,0-2,0.9-2,2.3v7.1c0,1.4,0.8,2.3,2,2.3
		c1.2,0,2-0.9,2-2.3V725.9z"/>
</g>
<g>
	<path d="M98.9,429.8v3.8h-2.8v-3.8h-3.7v-2.9h3.7V423h2.8v3.8h3.6v2.9H98.9z"/>
	<path d="M113.5,433.7c-0.7,0.8-1.9,1.4-3.6,1.4s-2.9-0.6-3.6-1.4c-1-1.1-1.2-2.3-1.3-3.6h3c0.2,1.3,0.8,2.1,2,2.1
		c0.6,0,1-0.2,1.4-0.6c0.5-0.6,0.6-1.5,0.6-2.5c0-2-0.5-3.1-2-3.1c-1.2,0-1.8,0.7-2,1.4h-2.7v-9.6h9.2v2.8H108v3.7
		c0.4-0.4,1.3-0.9,2.4-0.9c1.3,0,2.4,0.5,3,1.2c1.3,1.3,1.5,3,1.5,4.6C114.9,431.1,114.6,432.5,113.5,433.7z"/>
</g>
<g>
	<path d="M109.8,334.1c-2.6,0-4.9-1.8-4.9-5.1v-7.2c0-3.3,2.3-5.1,4.9-5.1c2.6,0,4.9,1.8,4.9,5.1v7.2
		C114.8,332.3,112.5,334.1,109.8,334.1z M111.8,321.9c0-1.4-0.8-2.3-2-2.3c-1.2,0-2,0.9-2,2.3v7.1c0,1.4,0.8,2.3,2,2.3
		c1.2,0,2-0.9,2-2.3V321.9z"/>
</g>
<g>
	<path d="M95.3,227.5v-2.9h7v2.9H95.3z"/>
	<path d="M113.5,231.7c-0.7,0.8-1.9,1.4-3.6,1.4s-2.9-0.6-3.6-1.4c-1-1.1-1.2-2.3-1.3-3.6h3c0.2,1.3,0.8,2.1,2,2.1
		c0.6,0,1-0.2,1.4-0.6c0.5-0.6,0.6-1.5,0.6-2.5c0-2-0.5-3.1-2-3.1c-1.2,0-1.8,0.7-2,1.4h-2.7v-9.6h9.2v2.8H108v3.7
		c0.4-0.4,1.3-0.9,2.4-0.9c1.3,0,2.4,0.5,3,1.2c1.3,1.3,1.5,3,1.5,4.6C114.9,229.1,114.6,230.5,113.5,231.7z"/>
</g>
<g>
	<path d="M83,126.5v-2.9h7v2.9H83z"/>
	<path d="M96.9,131.9v-13.7l-3.3,3v-3.4l3.3-3h3v17.1H96.9z"/>
	<path d="M109.8,132.1c-2.6,0-4.9-1.8-4.9-5.1v-7.2c0-3.3,2.3-5.1,4.9-5.1c2.6,0,4.9,1.8,4.9,5.1v7.2
		C114.8,130.3,112.5,132.1,109.8,132.1z M111.8,119.9c0-1.4-0.8-2.3-2-2.3c-1.2,0-2,0.9-2,2.3v7.1c0,1.4,0.8,2.3,2,2.3
		c1.2,0,2-0.9,2-2.3V119.9z"/>
</g>
<g>
	<path d="M86.5,530.8v3.8h-2.8v-3.8h-3.7v-2.9h3.7V524h2.8v3.8h3.6v2.9H86.5z"/>
	<path d="M96.9,535.9v-13.7l-3.3,3v-3.4l3.3-3h3v17.1H96.9z"/>
	<path d="M109.8,536.1c-2.6,0-4.9-1.8-4.9-5.1v-7.2c0-3.3,2.3-5.1,4.9-5.1c2.6,0,4.9,1.8,4.9,5.1v7.2
		C114.8,534.3,112.5,536.1,109.8,536.1z M111.8,523.9c0-1.4-0.8-2.3-2-2.3c-1.2,0-2,0.9-2,2.3v7.1c0,1.4,0.8,2.3,2,2.3
		c1.2,0,2-0.9,2-2.3V523.9z"/>
</g>
<g>
	<path d="M83,20v-2.9h7V20H83z"/>
	<path d="M96.9,25.4V11.6l-3.3,3v-3.4l3.3-3h3v17.1H96.9z"/>
	<path d="M113.5,24.1c-0.7,0.8-1.9,1.4-3.6,1.4s-2.9-0.6-3.6-1.4c-1-1.1-1.2-2.3-1.3-3.6h3c0.2,1.3,0.8,2.1,2,2.1
		c0.6,0,1-0.2,1.4-0.6c0.5-0.6,0.6-1.5,0.6-2.5c0-2-0.5-3.1-2-3.1c-1.2,0-1.8,0.7-2,1.4h-2.7V8.3h9.2v2.8H108v3.7
		c0.4-0.4,1.3-0.9,2.4-0.9c1.3,0,2.4,0.5,3,1.2c1.3,1.3,1.5,3,1.5,4.6C114.9,21.5,114.6,22.9,113.5,24.1z"/>
</g>
<line class="st3" x1="124" y1="729" x2="700" y2="729"/>
<g class="st5">
	<path d="M551.4,204.8c0,0-0.1,0-0.1,0c-8-0.2-196.5-5.3-244-14.2c-46.6-8.8-118.7-7.6-119.4-7.6c0,0-0.1,0-0.1,0
		c-2.7,0-4.9-2.2-5-4.9c0-2.8,2.1-5,4.9-5.1c3-0.1,73.8-1.2,121.4,7.8c46.8,8.8,240.5,14,242.4,14.1c2.8,0.1,4.9,2.4,4.9,5.1
		C556.4,202.6,554.1,204.8,551.4,204.8z"/>
	<path d="M360.7,227.7c-56.4,0-97.8-6.4-124.4-12.4c-35.6-8.1-52.6-17.1-53.3-17.5c-2.4-1.3-3.3-4.3-2-6.8c1.3-2.4,4.3-3.3,6.8-2
		c0.9,0.5,67.9,35.2,213.2,27.7l149-7.7c2.8-0.1,5.1,2,5.3,4.7c0.1,2.8-2,5.1-4.7,5.3l-149,7.7C387.1,227.4,373.5,227.7,360.7,227.7
		z"/>
	<path d="M376,280.2c-58.8,0-104.6-14-134.1-26.8c-37.6-16.3-57.5-33.8-58.4-34.6c-2.1-1.8-2.2-5-0.4-7.1c1.8-2.1,5-2.2,7.1-0.4l0,0
		c0.2,0.2,19.8,17.4,56.1,33c33.5,14.4,88.4,30.3,159.9,24.5c56.8-4.7,97.9-8,122.1-9.9c9.1-0.7,15.7-1.2,19.8-1.5
		c1.8-0.1,3-0.2,3.7-0.2c5.4-0.3,6.1,3.4,6.2,4.5c0,0.5,0.3,4.9-5.2,5.5c-0.4,0-0.9,0.1-0.9,0.1c-0.4,0-0.9,0-1.3,0
		c-7.6,0.5-36.9,2.8-143.5,11.6C396.3,279.8,385.9,280.2,376,280.2z"/>
	<path d="M331.4,338.4c-12.1,0-23.6-1.4-34.4-4.7c-38.1-11.8-113.3-95.1-116.5-98.6c-1.8-2.1-1.7-5.2,0.4-7.1
		c2.1-1.8,5.2-1.7,7.1,0.4c0.8,0.8,76.5,84.8,112,95.8c32.8,10.2,74.5,0.4,118.7-10c4.1-1,8.1-1.9,12.2-2.9
		c54.9-12.7,118.1-19.2,118.7-19.3c2.7-0.3,5.2,1.7,5.5,4.5s-1.7,5.2-4.5,5.5c-0.6,0.1-63.2,6.5-117.5,19.1
		c-4.1,0.9-8.1,1.9-12.2,2.8C389.3,331.3,358.9,338.4,331.4,338.4z"/>
	<path d="M386.2,393.7c-13,0-26.8-2-41.1-7.1c-58.7-20.8-98.1-54.3-99.7-55.7c-2.1-1.8-2.3-5-0.5-7c1.8-2.1,5-2.3,7.1-0.5
		c0.4,0.3,39.6,33.8,96.5,53.9c38,13.5,72.4,3.3,98.1-7c16.6-6.7,27.7-7.7,28.2-7.8c2.7-0.2,5.2,1.8,5.4,4.5
		c0.2,2.8-1.8,5.2-4.5,5.4c-0.1,0-10.2,1-25.3,7.1C432.4,386.6,410.6,393.7,386.2,393.7z"/>
	<path d="M574.2,723.9c-3,0-5.8-1.8-6.9-4.7c-0.3-0.8-8.2-20.4-8.7-40.7c-2.1-102.1-4.7-118.1-16.9-154
		c-14.8-43.5-61.6-77-125.3-89.7c-47.5-9.4-92-25.7-128.6-47c-36.9-21.4-64.2-47.1-79.2-74.2c-18-28.3-31.4-56-32-57.1
		c-1.8-3.7-0.2-8.2,3.5-10c3.7-1.8,8.2-0.2,10,3.5c0.1,0.3,13.7,28.2,31.3,55.8c0.1,0.1,0.2,0.3,0.3,0.4
		C249.5,357,327.1,401.7,419.3,420c37.5,7.5,68.9,21.2,93.4,40.7c20.8,16.6,35.7,37,43.2,58.9c12.9,37.8,15.6,54.3,17.7,158.6
		c0.4,17.6,7.5,35.2,7.5,35.4c1.6,3.8-0.3,8.2-4.1,9.8C576.1,723.7,575.1,723.9,574.2,723.9z"/>
	<path id="path6713" d="M477.3,623.9c-5,24.8-74.2,11.6-155.9-11.9c-81.7-23.6-143-54-136.8-77.7c6.1-23.7,79.5-10.8,165,15.1
		S482.3,599.1,477.3,623.9z"/>
	<path d="M525.2,539.5c-2.1,0-4-1.3-4.7-3.3c-0.1-0.2-8.5-23.2-32.2-45.9c-30.9-29.6-90.4-41.3-91-41.4c-2.7-0.5-4.5-3.1-4-5.9
		c0.5-2.7,3.1-4.5,5.9-4c2.6,0.5,63,12.4,96,44c25.5,24.4,34.3,48.8,34.7,49.8c0.9,2.6-0.4,5.5-3,6.4
		C526.3,539.4,525.7,539.5,525.2,539.5z"/>
	<path d="M557.7,147.8c0,22.9-82.9,24.8-184,24.8s-182,0-182-24.8s81.9-26.8,183-26.8S557.7,125,557.7,147.8z"/>
</g>
</svg>
